# xmcd
#
# Track frame offsets:
# 150
# 11628
# 23504
# 38247
# 53137
# 68967
# 81520
# 95291
# 109004
# 123270
# 137849
# 151700
# 166497
# 178880
# 190491
# 202176
# 214856
# 229769
# 245560
# 256077
# 266390
# 280142
# 294211
# 307624
# 319560
# 330367
# 340935
# 350559
#
# Disc length: 4786 seconds
#
#
# Revision: 0
# Processed by: cddbd v1.5.2PL0 Copyright (c) Steve Scherf et al.
# Submitted via: FreeRIP 2.96 
#
DISCID=8c12b01c
DTITLE=Val McDermid - Ein kalter Strom CD2v6
DYEAR=2007
DGENRE=Hörbuch
TTITLE0=025 Ein kalter Strom
TTITLE1=026 Ein kalter Strom
TTITLE2=027 Ein kalter Strom
TTITLE3=028 Ein kalter Strom
TTITLE4=029 Ein kalter Strom
TTITLE5=030 Ein kalter Strom
TTITLE6=031 Ein kalter Strom
TTITLE7=032 Ein kalter Strom
TTITLE8=033 Ein kalter Strom
TTITLE9=034 Ein kalter Strom
TTITLE10=035 Ein kalter Strom
TTITLE11=036 Ein kalter Strom
TTITLE12=037 Ein kalter Strom
TTITLE13=038 Ein kalter Strom
TTITLE14=039 Ein kalter Strom
TTITLE15=040 Ein kalter Strom
TTITLE16=041 Ein kalter Strom
TTITLE17=042 Ein kalter Strom
TTITLE18=043 Ein kalter Strom
TTITLE19=044 Ein kalter Strom
TTITLE20=045 Ein kalter Strom
TTITLE21=046 Ein kalter Strom
TTITLE22=047 Ein kalter Strom
TTITLE23=048 Ein kalter Strom
TTITLE24=049 Ein kalter Strom
TTITLE25=050 Ein kalter Strom
TTITLE26=051 Ein kalter Strom
TTITLE27=052 Ein kalter Strom
EXTD=gelesen von Elke Schützhold
EXTT0=
EXTT1=
EXTT2=
EXTT3=
EXTT4=
EXTT5=
EXTT6=
EXTT7=
EXTT8=
EXTT9=
EXTT10=
EXTT11=
EXTT12=
EXTT13=
EXTT14=
EXTT15=
EXTT16=
EXTT17=
EXTT18=
EXTT19=
EXTT20=
EXTT21=
EXTT22=
EXTT23=
EXTT24=
EXTT25=
EXTT26=
EXTT27=
PLAYORDER=
